<svg data-v-423bf9ae="" xmlns="http://www.w3.org/2000/svg" viewBox="0 0 712 90" class="iconLeft"><!----><!----><!----><g data-v-423bf9ae="" id="f34e5f48-35a4-4c4b-a604-db813abb67f0" fill="#0BDED0" transform="matrix(5.395683046021815,0,0,5.395683046021815,104.3884812661372,17.589926534493483)"><path d="M3.29 2.44L7.69 2.44L7.69 0.71L1.04 0.71L1.04 10.50L3.29 10.50L3.29 6.44L7.41 6.44L7.41 4.70L3.29 4.70ZM16.24 9.10L15.72 9.10C15.32 9.10 15.19 8.90 15.19 8.55L15.19 5.60C15.19 3.81 14.24 2.86 12.12 2.86C10.04 2.86 9.03 3.79 8.90 5.14L10.92 5.26C10.92 4.56 11.30 4.17 12.00 4.17C12.67 4.17 13.06 4.49 13.06 5.35L13.06 5.98L12.32 5.98C9.86 5.98 8.61 6.65 8.61 8.40C8.61 9.53 9.37 10.64 11.03 10.64C12.05 10.64 12.89 10.21 13.24 9.25C13.26 10.16 14.00 10.64 15.06 10.64C15.54 10.64 15.76 10.63 16.24 10.58ZM11.79 9.24C11.07 9.24 10.74 8.75 10.74 8.20C10.74 7.36 11.40 7.10 12.11 7.10L13.06 7.10L13.06 7.66C13.06 8.68 12.53 9.24 11.79 9.24ZM24.71 6.71C24.71 4.38 23.84 2.86 21.81 2.86C20.75 2.86 19.82 3.29 19.52 4.35C19.53 4.21 19.54 4.02 19.54 3.85L19.54-0.48L17.36-0.48L17.36 8.74C17.36 9.18 17.35 9.91 17.30 10.50L19.42 10.50C19.45 10.12 19.50 9.66 19.52 9.21C19.82 10.14 20.82 10.64 21.81 10.64C23.83 10.64 24.71 9.03 24.71 6.71ZM22.43 6.73C22.43 8.37 21.94 9.13 21.01 9.13C20.34 9.13 19.52 8.68 19.52 6.76C19.52 4.80 20.36 4.40 21.01 4.40C21.97 4.40 22.43 5.11 22.43 6.73ZM30.84 4.75L30.84 2.88C30.67 2.86 30.46 2.86 30.37 2.86C29.25 2.86 28.62 3.50 28.41 4.35C28.39 3.92 28.34 3.33 28.31 3.00L26.15 3.00C26.18 3.16 26.22 4.30 26.22 4.77L26.22 10.50L28.43 10.50L28.43 6.61C28.43 5.49 28.95 4.70 30.10 4.70C30.34 4.70 30.53 4.70 30.84 4.75ZM32.17 10.50L34.34 10.50L34.34 3.00L32.17 3.00ZM32.17 2.06L34.34 2.06L34.34 0.01L32.17 0.01ZM40.94 10.50L43.30 10.50L40.54 5.96L43.08 3.00L40.75 3.00L38.30 5.95L38.30-0.48L36.12-0.48L36.12 10.50L38.30 10.50L38.30 7.87L39.06 7.24ZM51.42 9.10L50.90 9.10C50.50 9.10 50.37 8.90 50.37 8.55L50.37 5.60C50.37 3.81 49.42 2.86 47.31 2.86C45.22 2.86 44.21 3.79 44.09 5.14L46.10 5.26C46.10 4.56 46.48 4.17 47.18 4.17C47.85 4.17 48.24 4.49 48.24 5.35L48.24 5.98L47.50 5.98C45.04 5.98 43.79 6.65 43.79 8.40C43.79 9.53 44.55 10.64 46.21 10.64C47.24 10.64 48.08 10.21 48.43 9.25C48.44 10.16 49.18 10.64 50.25 10.64C50.72 10.64 50.95 10.63 51.42 10.58ZM46.97 9.24C46.26 9.24 45.92 8.75 45.92 8.20C45.92 7.36 46.58 7.10 47.29 7.10L48.24 7.10L48.24 7.66C48.24 8.68 47.71 9.24 46.97 9.24ZM56.95 10.50L59.15 10.50L59.15 6.27C59.15 5.14 59.65 4.52 60.35 4.52C61.11 4.52 61.33 5.04 61.33 5.99L61.33 10.50L63.57 10.50L63.57 5.61C63.57 4.00 62.97 2.86 61.33 2.86C60.27 2.86 59.39 3.42 59.05 4.59C58.84 3.67 58.31 2.86 56.92 2.86C55.89 2.86 55.08 3.39 54.73 4.52C54.70 3.93 54.64 3.18 54.63 3.00L52.50 3.00C52.53 3.28 52.57 4.05 52.57 4.69L52.57 10.50L54.77 10.50L54.77 6.36C54.77 5.11 55.26 4.52 55.96 4.52C56.71 4.52 56.95 5.04 56.95 6.06ZM73.92 10.64C75.91 10.64 77.57 9.90 78.60 8.93L78.60 5.26L74.28 5.26L74.28 6.90L76.57 6.90L76.57 8.16C76.08 8.54 75.12 8.90 74.02 8.90C72.03 8.90 71.18 7.52 71.18 5.56C71.18 3.61 72.00 2.32 73.96 2.32C75.28 2.32 76.03 3.04 76.31 3.81L78.39 3.19C77.83 1.60 76.41 0.57 73.95 0.57C70.52 0.57 68.91 2.49 68.91 5.56C68.91 8.47 70.36 10.64 73.92 10.64ZM80.56 10.50L82.74 10.50L82.74-0.48L80.56-0.48ZM89.53 6.75C89.53 8.41 89.03 9.18 87.96 9.18C87.01 9.18 86.44 8.33 86.44 6.75C86.44 5.17 86.94 4.38 88.00 4.38C88.97 4.38 89.53 5.18 89.53 6.75ZM91.76 6.73C91.76 4.45 90.66 2.86 87.99 2.86C85.43 2.86 84.20 4.47 84.20 6.73C84.20 9.09 85.44 10.64 87.95 10.64C90.51 10.64 91.76 9.10 91.76 6.73ZM100.60 6.71C100.60 4.38 99.74 2.86 97.71 2.86C96.64 2.86 95.72 3.29 95.41 4.35C95.42 4.21 95.44 4.02 95.44 3.85L95.44-0.48L93.25-0.48L93.25 8.74C93.25 9.18 93.24 9.91 93.20 10.50L95.31 10.50C95.34 10.12 95.40 9.66 95.41 9.21C95.72 10.14 96.71 10.64 97.71 10.64C99.72 10.64 100.60 9.03 100.60 6.71ZM98.32 6.73C98.32 8.37 97.83 9.13 96.91 9.13C96.24 9.13 95.41 8.68 95.41 6.76C95.41 4.80 96.25 4.40 96.91 4.40C97.86 4.40 98.32 5.11 98.32 6.73ZM109.17 9.10L108.65 9.10C108.25 9.10 108.12 8.90 108.12 8.55L108.12 5.60C108.12 3.81 107.17 2.86 105.06 2.86C102.97 2.86 101.96 3.79 101.84 5.14L103.85 5.26C103.85 4.56 104.23 4.17 104.93 4.17C105.60 4.17 105.99 4.49 105.99 5.35L105.99 5.98L105.25 5.98C102.79 5.98 101.54 6.65 101.54 8.40C101.54 9.53 102.30 10.64 103.96 10.64C104.99 10.64 105.83 10.21 106.18 9.25C106.19 10.16 106.93 10.64 108.00 10.64C108.47 10.64 108.70 10.63 109.17 10.58ZM104.72 9.24C104.01 9.24 103.67 8.75 103.67 8.20C103.67 7.36 104.33 7.10 105.04 7.10L105.99 7.10L105.99 7.66C105.99 8.68 105.46 9.24 104.72 9.24ZM110.25 10.50L112.43 10.50L112.43-0.48L110.25-0.48Z"></path></g><!----><g data-v-423bf9ae="" id="f156f9b1-8127-423d-91fe-56e35e461a01" transform="matrix(2.8125,0,0,2.8125,0,0)" stroke="none" fill="#0BDED0"><path d="M16 32c8.837 0 16-7.163 16-16S24.837 0 16 0 0 7.163 0 16s7.163 16 16 16zM14.817 6.421h2v8.886h8.887v2H14.817V6.421zm-5.959.437h2v14.283h14.283v2H8.858V6.858z"></path></g><!----></svg>